<?xml version="1.0" encoding="UTF-8" standalone="no"?>
<svg
   xmlns:dc="http://purl.org/dc/elements/1.1/"
   xmlns:cc="http://creativecommons.org/ns#"
   xmlns:rdf="http://www.w3.org/1999/02/22-rdf-syntax-ns#"
   xmlns:svg="http://www.w3.org/2000/svg"
   xmlns="http://www.w3.org/2000/svg"
   xmlns:sodipodi="http://sodipodi.sourceforge.net/DTD/sodipodi-0.dtd"
   xmlns:inkscape="http://www.inkscape.org/namespaces/inkscape"
   version="1.1"
   id="svg2"
   xml:space="preserve"
   width="1587.4"
   height="1122.52"
   viewBox="0 0 1587.4 1122.52"
   sodipodi:docname="[LOGOS VECTOR] Empty set dollar.ai"><metadata
     id="metadata8"><rdf:RDF><cc:Work
         rdf:about=""><dc:format>image/svg+xml</dc:format><dc:type
           rdf:resource="http://purl.org/dc/dcmitype/StillImage" /></cc:Work></rdf:RDF></metadata><defs
     id="defs6"><clipPath
       clipPathUnits="userSpaceOnUse"
       id="clipPath18"><path
         d="M 0,841.89 H 1190.551 V 0 H 0 Z"
         id="path16" /></clipPath></defs><sodipodi:namedview
     pagecolor="#ffffff"
     bordercolor="#666666"
     borderopacity="1"
     objecttolerance="10"
     gridtolerance="10"
     guidetolerance="10"
     inkscape:pageopacity="0"
     inkscape:pageshadow="2"
     inkscape:window-width="640"
     inkscape:window-height="480"
     id="namedview4" /><g
     id="g10"
     inkscape:groupmode="layer"
     inkscape:label="[LOGOS VECTOR] Empty set dollar"
     transform="matrix(1.3333333,0,0,-1.3333333,0,1122.52)"><g
       id="g12"><g
         id="g14"
         clip-path="url(#clipPath18)"><g
           id="g20"
           transform="translate(328.6836,453.5031)"><path
             d="m 0,0 c -23.936,0 -43.408,-19.473 -43.408,-43.408 0,-23.936 19.472,-43.409 43.408,-43.409 23.936,0 43.408,19.473 43.408,43.409 C 43.408,-19.473 23.936,0 0,0 m 0,-94.817 c -28.347,0 -51.408,23.062 -51.408,51.409 C -51.408,-15.062 -28.347,8 0,8 28.347,8 51.408,-15.062 51.408,-43.408 51.408,-71.755 28.347,-94.817 0,-94.817"
             style="fill:#000000;fill-opacity:1;fill-rule:nonzero;stroke:none"
             id="path22" /></g><g
           id="g24"
           transform="translate(788.4224,409.8889)"><path
             d="m 0,0 c 0,-3.576 1.098,-6.474 3.294,-8.692 2.196,-2.219 4.918,-3.327 8.166,-3.327 3.247,0 5.969,1.108 8.165,3.327 2.196,2.218 3.296,5.116 3.296,8.692 0,3.531 -1.1,6.406 -3.296,8.625 C 17.38,10.888 14.659,12.02 11.46,12.02 8.261,12.02 5.539,10.888 3.294,8.625 1.098,6.406 0,3.531 0,0 m -6.59,0 c 0,5.116 1.694,9.348 5.085,12.699 3.438,3.349 7.759,5.025 12.965,5.025 5.204,0 9.502,-1.676 12.893,-5.025 C 27.791,9.348 29.511,5.116 29.511,0 c 0,-5.161 -1.72,-9.394 -5.158,-12.699 -3.391,-3.35 -7.689,-5.025 -12.893,-5.025 -5.206,0 -9.527,1.675 -12.965,5.025 C -4.896,-9.349 -6.59,-5.116 -6.59,0"
             style="fill:#000000;fill-opacity:1;fill-rule:nonzero;stroke:none"
             id="path26" /></g><g
           id="g28"
           transform="translate(532.416,398.071)"><path
             d="m 0,0 c -5.473,0 -11.377,4.248 -11.377,11.521 0,7.201 5.4,11.737 11.377,11.737 6.192,0 11.089,-5.04 11.089,-11.737 C 11.089,4.752 6.192,0 0,0 m -12.638,29.162 h -3.742 c -0.697,0 -1.262,-0.564 -1.262,-1.261 v -9.057 -35.157 c 0,-0.697 0.565,-1.262 1.262,-1.262 h 3.742 c 0.697,0 1.261,0.565 1.261,1.262 V -3.43 c 0,1.099 1.291,1.629 2.112,0.898 2.515,-2.238 6.133,-3.372 9.913,-3.372 9.217,0 16.778,6.84 16.778,17.497 0,10.585 -7.633,17.569 -16.85,17.569 -3.24,0 -6.512,-0.974 -8.989,-2.792 -1.23,-0.903 -2.964,0.005 -2.964,1.531 0,0.697 -0.564,1.261 -1.261,1.261"
             style="fill:#000000;fill-opacity:1;fill-rule:nonzero;stroke:none"
             id="path30" /></g><g
           id="g32"
           transform="translate(828.8296,392.9557)"><path
             d="m 0,0 h -3.419 c -0.851,0 -1.54,0.69 -1.54,1.541 V 44.32 c 0,0.851 0.689,1.54 1.54,1.54 H 0 c 0.851,0 1.541,-0.689 1.541,-1.54 V 1.541 C 1.541,0.69 0.851,0 0,0"
             style="fill:#000000;fill-opacity:1;fill-rule:nonzero;stroke:none"
             id="path34" /></g><g
           id="g36"
           transform="translate(843.145,392.9557)"><path
             d="m 0,0 h -3.419 c -0.851,0 -1.54,0.69 -1.54,1.541 V 44.32 c 0,0.851 0.689,1.54 1.54,1.54 H 0 c 0.851,0 1.541,-0.689 1.541,-1.54 V 1.541 C 1.541,0.69 0.851,0 0,0"
             style="fill:#000000;fill-opacity:1;fill-rule:nonzero;stroke:none"
             id="path38" /></g><g
           id="g40"
           transform="translate(758.9648,421.2556)"><path
             d="m 0,0 c 5.473,0 11.377,-4.248 11.377,-11.521 0,-7.201 -5.4,-11.737 -11.377,-11.737 -6.192,0 -11.089,5.04 -11.089,11.737 C -11.089,-4.752 -6.192,0 0,0 m 13.05,-29.162 h 2.918 c 0.924,0 1.674,0.749 1.674,1.674 v 8.644 34.745 c 0,0.925 -0.75,1.674 -1.674,1.674 H 13.05 c -0.924,0 -1.673,-0.749 -1.673,-1.674 V 7.798 c 0,-2.619 -2.709,-4.44 -5.085,-3.338 -2.068,0.96 -4.47,1.444 -6.94,1.444 -9.217,0 -16.778,-6.84 -16.778,-17.497 0,-10.585 7.633,-17.569 16.85,-17.569 3.342,0 6.718,1.037 9.22,2.966 1.118,0.863 2.733,0.12 2.733,-1.292 0,-0.925 0.749,-1.674 1.673,-1.674"
             style="fill:#000000;fill-opacity:1;fill-rule:nonzero;stroke:none"
             id="path42" /></g><g
           id="g44"
           transform="translate(658.8433,402.5207)"><path
             d="m 0,0 c 0,-2.896 -1.267,-5.338 -3.8,-7.329 -2.534,-1.99 -5.724,-2.986 -9.569,-2.986 -3.348,0 -6.288,0.872 -8.822,2.613 -1.984,1.363 -3.524,3.067 -4.62,5.111 -0.501,0.934 -0.047,2.102 0.929,2.519 l 2.219,0.947 c 0.877,0.374 1.867,0.003 2.344,-0.822 0.743,-1.283 1.685,-2.33 2.827,-3.14 1.561,-1.109 3.268,-1.663 5.123,-1.663 1.991,0 3.654,0.429 4.988,1.289 1.335,0.859 2.003,1.878 2.003,3.054 0,2.126 -1.63,3.687 -4.887,4.683 l -5.701,1.425 c -6.47,1.628 -9.704,4.75 -9.704,9.365 0,3.03 1.233,5.462 3.699,7.295 2.466,1.832 5.621,2.748 9.467,2.748 2.94,0 5.598,-0.702 7.974,-2.104 1.668,-0.985 2.986,-2.206 3.951,-3.66 0.646,-0.973 0.252,-2.297 -0.828,-2.745 l -2.259,-0.936 c -0.747,-0.31 -1.636,-0.101 -2.104,0.56 -0.611,0.863 -1.419,1.574 -2.426,2.133 -1.424,0.791 -3.018,1.187 -4.783,1.187 -1.628,0 -3.087,-0.407 -4.377,-1.221 -1.29,-0.814 -1.935,-1.81 -1.935,-2.986 0,-1.9 1.787,-3.257 5.361,-4.072 L -9.907,9.976 C -3.303,8.347 0,5.022 0,0"
             style="fill:#000000;fill-opacity:1;fill-rule:nonzero;stroke:none"
             id="path46" /></g><g
           id="g48"
           transform="translate(442.8115,412.6374)"><path
             d="m 0,0 c -0.259,1.681 -0.895,3.232 -1.907,4.654 -1.012,1.422 -2.305,2.541 -3.878,3.361 -1.573,0.818 -3.307,1.228 -5.203,1.228 -1.939,0 -3.706,-0.41 -5.3,-1.228 -1.594,-0.82 -2.887,-1.939 -3.878,-3.361 C -21.158,3.232 -21.804,1.681 -22.104,0 Z m -10.923,-20.359 c -4.182,0 -7.914,1.334 -11.191,4.004 -1.14,0.929 -2.156,2.014 -3.011,3.211 -2.252,3.153 -3.378,6.651 -3.378,10.495 0,4.435 1.48,8.363 4.446,11.784 0.526,0.607 1.103,1.171 1.722,1.683 3.364,2.785 7.168,4.177 11.412,4.177 3.618,0 6.939,-1.064 9.965,-3.189 C 0.309,10.918 1.449,9.849 2.424,8.648 4.492,6.102 5.773,3.24 6.27,0.065 6.514,-1.101 6.612,-2.207 6.566,-3.252 6.523,-4.248 5.724,-5.041 4.728,-5.041 h -26.832 c 0.258,-1.897 0.904,-3.578 1.938,-5.042 1.035,-1.465 2.359,-2.575 3.975,-3.328 1.616,-0.755 3.371,-1.131 5.268,-1.131 2.025,0 3.943,0.43 5.752,1.292 1.486,0.708 2.755,1.633 3.805,2.777 0.443,0.482 1.131,0.655 1.764,0.492 l 2.232,-0.577 c 1.259,-0.325 1.803,-1.832 1.021,-2.872 -1.308,-1.743 -3.021,-3.212 -5.138,-4.408 -2.973,-1.681 -6.119,-2.521 -9.436,-2.521"
             style="fill:#000000;fill-opacity:1;fill-rule:nonzero;stroke:none"
             id="path50" /></g><g
           id="g52"
           transform="translate(691.6899,412.5749)"><path
             d="m 0,0 c -0.259,1.687 -0.898,3.245 -1.914,4.673 -1.016,1.428 -2.314,2.552 -3.892,3.374 -1.579,0.822 -3.319,1.233 -5.222,1.233 -1.946,0 -3.72,-0.411 -5.32,-1.233 -1.6,-0.822 -2.898,-1.946 -3.892,-3.374 C -21.236,3.245 -21.884,1.687 -22.187,0 Z m -10.963,-20.441 c -4.198,0 -7.943,1.339 -11.233,4.021 -1.144,0.933 -2.163,2.022 -3.021,3.223 -2.262,3.166 -3.392,6.678 -3.392,10.537 0,4.453 1.485,8.397 4.463,11.832 0.528,0.609 1.107,1.175 1.728,1.689 3.377,2.796 7.195,4.194 11.455,4.194 3.631,0 6.964,-1.068 10.002,-3.201 C 0.31,10.961 1.455,9.889 2.433,8.683 4.508,6.126 5.794,3.252 6.292,0.065 6.538,-1.105 6.637,-2.215 6.591,-3.266 6.547,-4.265 5.745,-5.061 4.746,-5.061 h -26.933 c 0.26,-1.905 0.909,-3.592 1.947,-5.062 1.038,-1.471 2.368,-2.585 3.99,-3.342 1.622,-0.758 3.383,-1.135 5.287,-1.135 2.032,0 3.957,0.431 5.773,1.297 1.492,0.711 2.765,1.64 3.819,2.788 0.445,0.484 1.135,0.658 1.771,0.494 L 2.64,-10.6 c 1.263,-0.327 1.809,-1.839 1.025,-2.883 -1.313,-1.75 -3.032,-3.226 -5.157,-4.427 -2.984,-1.687 -6.142,-2.531 -9.471,-2.531"
             style="fill:#000000;fill-opacity:1;fill-rule:nonzero;stroke:none"
             id="path54" /></g><g
           id="g56"
           transform="translate(895.1074,427.2023)"><path
             d="m 0,0 h 2.734 c 1.03,0 1.864,-0.834 1.864,-1.864 0,-1.237 1.474,-1.808 2.361,-0.948 0.79,0.765 1.704,1.413 2.743,1.942 1.89,0.961 4.107,1.362 6.651,1.201 1.022,-0.065 1.815,-0.934 1.815,-1.958 v -2.737 c 0,-1.155 -0.998,-2.069 -2.146,-1.94 -1.793,0.2 -3.498,0.01 -5.119,-0.571 C 9.883,-7.241 8.926,-7.791 8.107,-8.5 5.766,-10.526 4.598,-13.332 4.598,-16.93 v -15.473 c 0,-1.018 -0.825,-1.844 -1.844,-1.844 h -2.775 c -1.018,0 -1.844,0.826 -1.844,1.844 V -1.864 C -1.865,-0.834 -1.03,0 0,0"
             style="fill:#000000;fill-opacity:1;fill-rule:nonzero;stroke:none"
             id="path58" /></g><g
           id="g60"
           transform="translate(494.0205,427.2331)"><path
             d="m 0,0 c -2.59,0 -6.32,-0.591 -9.279,-3.555 -1.328,-1.33 -3.45,-1.278 -4.765,0.063 C -16.263,-1.229 -19.363,0 -22.78,0 c -3.081,0 -5.973,-0.943 -8.095,-2.588 -0.965,-0.748 -2.362,-0.115 -2.362,1.106 v 0.058 c 0,0.787 -0.638,1.424 -1.424,1.424 h -3.404 c -0.787,0 -1.424,-0.637 -1.424,-1.424 v -31.43 c 0,-0.786 0.637,-1.423 1.424,-1.423 h 3.404 c 0.786,0 1.424,0.637 1.424,1.423 v 18.11 c 0,1.568 0.336,3.143 1.144,4.486 1.761,2.928 4.886,4.222 8.019,4.222 4.455,0 7.546,-3.521 7.546,-9.198 v -17.62 c 0,-0.786 0.637,-1.423 1.424,-1.423 h 3.404 c 0.786,0 1.424,0.637 1.424,1.423 v 15.68 c -0.575,6.467 3.089,11.21 9.054,11.138 4.887,0 7.977,-3.593 7.977,-9.198 v -17.62 c 0,-0.786 0.638,-1.423 1.424,-1.423 h 3.404 c 0.786,0 1.424,0.637 1.424,1.423 v 17.979 C 13.007,-5.461 8.408,0 0,0"
             style="fill:#000000;fill-opacity:1;fill-rule:nonzero;stroke:none"
             id="path62" /></g><g
           id="g64"
           transform="translate(867.6406,398.2043)"><path
             d="m 0,0 c -6.188,0 -11.138,5.098 -11.138,11.867 0,6.844 4.95,11.649 11.138,11.649 5.605,0 11.574,-4.295 11.574,-11.649 C 11.574,4.588 6.115,0 0,0 m 11.574,27.409 c 0,-1.232 -1.435,-1.911 -2.38,-1.119 -2.528,2.121 -6.076,3.195 -9.777,3.195 -9.319,0 -16.963,-6.915 -16.963,-17.689 0,-10.702 7.718,-17.765 17.036,-17.765 3.554,0 7.146,1.159 9.706,3.309 0.943,0.791 2.378,0.109 2.378,-1.122 0,-0.805 0.653,-1.458 1.458,-1.458 h 3.418 c 0.805,0 1.458,0.653 1.458,1.458 v 30.115 1.238 c 0,0.805 -0.653,1.458 -1.458,1.458 h -3.418 c -0.805,0 -1.458,-0.653 -1.458,-1.458 z"
             style="fill:#231f20;fill-opacity:1;fill-rule:nonzero;stroke:none"
             id="path66" /></g><g
           id="g68"
           transform="translate(720.6865,397.6906)"><path
             d="m 0,0 c -0.471,1.333 -1.606,0.875 -1.606,0.875 l -0.252,-0.06 c -0.504,-0.12 -1.02,-0.179 -1.548,-0.179 -1.152,0 -2.184,0.419 -3.095,1.26 -0.914,0.838 -1.369,2.435 -1.369,4.788 v 14.924 c 0,0.724 0.587,1.31 1.31,1.31 h 3.672 c 0.723,0 1.31,0.587 1.31,1.311 v 4.003 c 0,0.724 -0.587,1.31 -1.31,1.31 H -7.87 v 0.758 9.49 c 0,0.723 -0.587,1.31 -1.31,1.31 h -4.004 c -0.723,0 -1.31,-0.587 -1.31,-1.31 V 30.3 29.542 h -4.343 c -0.724,0 -1.31,-0.586 -1.31,-1.31 v -4.003 c 0,-0.724 0.586,-1.311 1.31,-1.311 h 4.343 V 22.703 4.523 c 0.047,-3.168 1.02,-5.64 2.916,-7.416 1.896,-1.776 4.285,-2.664 7.164,-2.664 1.72,0 3.278,0.174 4.677,0.522 0.75,0.186 1.169,0.986 0.911,1.715 L 0,0"
             style="fill:#000000;fill-opacity:1;fill-rule:nonzero;stroke:none"
             id="path70" /></g><g
           id="g72"
           transform="translate(608.0537,427.2018)"><path
             d="m 0,0 c -0.675,0 -1.283,-0.41 -1.536,-1.037 l -9.414,-23.335 h -0.144 l -9.181,22.137 C -20.836,-0.882 -22.157,0 -23.623,0 h -4.754 -11.999 v 9.958 c 0,0.915 -0.742,1.656 -1.657,1.656 h -3.331 c -0.915,0 -1.657,-0.741 -1.657,-1.656 V 0 h -5.456 c -0.915,0 -1.656,-0.742 -1.656,-1.657 v -3.31 c 0,-0.915 0.741,-1.657 1.656,-1.657 h 3.8 c 0.915,0 1.656,-0.742 1.656,-1.657 v -16.523 c 0.047,-3.168 1.02,-5.64 2.917,-7.416 1.895,-1.776 4.284,-2.664 7.164,-2.664 1.567,0 3.002,0.145 4.303,0.434 0.953,0.212 1.484,1.241 1.158,2.162 l -0.961,2.717 c -0.282,0.798 -1.121,1.255 -1.944,1.059 h -10e-4 c -0.504,-0.12 -1.02,-0.179 -1.548,-0.179 -1.152,0 -2.184,0.419 -3.095,1.259 -0.913,0.839 -1.368,2.436 -1.368,4.788 v 14.363 c 0,0.915 0.741,1.657 1.656,1.657 h 10.914 c 1.437,0 2.738,-0.849 3.316,-2.164 l 9.947,-22.604 c 0.192,-0.434 0.188,-0.93 -0.011,-1.361 l -5.351,-11.594 c -0.507,-1.097 0.295,-2.351 1.504,-2.351 h 3.08 c 0.66,0 1.257,0.392 1.519,0.996 L 5.043,-2.317 C 5.519,-1.223 4.717,0 3.524,0 Z"
             style="fill:#000000;fill-opacity:1;fill-rule:nonzero;stroke:none"
             id="path74" /></g></g></g></g></svg>
