<?xml version="1.0" encoding="UTF-8" standalone="no"?>
<svg
   xmlns:dc="http://purl.org/dc/elements/1.1/"
   xmlns:cc="http://creativecommons.org/ns#"
   xmlns:rdf="http://www.w3.org/1999/02/22-rdf-syntax-ns#"
   xmlns:svg="http://www.w3.org/2000/svg"
   xmlns="http://www.w3.org/2000/svg"
   xmlns:sodipodi="http://sodipodi.sourceforge.net/DTD/sodipodi-0.dtd"
   xmlns:inkscape="http://www.inkscape.org/namespaces/inkscape"
   id="Layer_1"
   data-name="Layer 1"
   viewBox="0 0 793.74002 155.14"
   version="1.1"
   sodipodi:docname="logo_black.svg"
   width="793.74005"
   height="155.14"
   inkscape:version="1.0.1 (c497b03c, 2020-09-10)">
  <metadata
     id="metadata134">
    <rdf:RDF>
      <cc:Work
         rdf:about="">
        <dc:format>image/svg+xml</dc:format>
        <dc:type
           rdf:resource="http://purl.org/dc/dcmitype/StillImage" />
        <dc:title></dc:title>
      </cc:Work>
    </rdf:RDF>
  </metadata>
  <defs
     id="defs132" />
  <sodipodi:namedview
     pagecolor="#ffffff"
     bordercolor="#666666"
     borderopacity="1"
     objecttolerance="10"
     gridtolerance="10"
     guidetolerance="10"
     inkscape:pageopacity="0"
     inkscape:pageshadow="2"
     inkscape:window-width="1460"
     inkscape:window-height="853"
     id="namedview130"
     showgrid="false"
     fit-margin-top="16"
     fit-margin-left="16"
     fit-margin-right="16"
     fit-margin-bottom="16"
     inkscape:zoom="0.88446516"
     inkscape:cx="396.845"
     inkscape:cy="-111.81528"
     inkscape:window-x="911"
     inkscape:window-y="309"
     inkscape:window-maximized="0"
     inkscape:current-layer="Layer_1" />
  <path
     d="m 77.57,139.14 a 61.57,61.57 0 1 1 61.57,-61.57 61.64,61.64 0 0 1 -61.57,61.57 z m 0,-113.55 a 52,52 0 1 0 52,52 52,52 0 0 0 -52,-52.04 z"
     id="path99" />
  <path
     d="m 620.25,77.78 a 20.5,20.5 0 0 1 6.09,-15.21 21.36,21.36 0 0 1 15.53,-6 21.07,21.07 0 0 1 15.44,6 21.83,21.83 0 0 1 0,30.42 21.06,21.06 0 0 1 -15.44,6 21.35,21.35 0 0 1 -15.53,-6 20.5,20.5 0 0 1 -6.09,-15.21 z m 7.89,0 a 14.17,14.17 0 0 0 3.95,10.41 14,14 0 0 0 19.56,0 15.62,15.62 0 0 0 0,-20.74 13.81,13.81 0 0 0 -19.56,0 14.06,14.06 0 0 0 -3.95,10.33 z"
     id="path101" />
  <path
     d="m 306.44,57.01 h -4.49 a 1.52,1.52 0 0 0 -1.51,1.51 v 52.95 a 1.52,1.52 0 0 0 1.51,1.51 h 4.49 a 1.52,1.52 0 0 0 1.51,-1.51 V 96.04 a 1.49,1.49 0 0 1 2.52,-1.08 17.91,17.91 0 0 0 11.88,4 c 11,0 20.09,-8.19 20.09,-20.95 0,-12.76 -9.14,-21 -20.18,-21 a 18.48,18.48 0 0 0 -10.76,3.34 2.24,2.24 0 0 1 -3.55,-1.83 v 0 a 1.52,1.52 0 0 0 -1.51,-1.51 z m 15.13,34.92 A 13.61,13.61 0 0 1 307.95,78.14 c 0,-8.63 6.46,-14.06 13.62,-14.06 7.42,0 13.28,6 13.28,14.06 0,8.06 -5.86,13.79 -13.28,13.79 z"
     id="path103" />
  <rect
     x="670.59003"
     y="43.139999"
     width="7.7800002"
     height="54.919998"
     rx="1.84"
     id="rect105" />
  <rect
     x="687.73999"
     y="43.139999"
     width="7.7800002"
     height="54.919998"
     rx="1.84"
     id="rect107" />
  <path
     d="m 608.5,99.14 h 3.49 a 2,2 0 0 0 2,-2 v -52 a 2,2 0 0 0 -2,-2 h -3.49 a 2,2 0 0 0 -2,2 v 9.7 a 4.34,4.34 0 0 1 -6.09,4 19.81,19.81 0 0 0 -8.31,-1.73 c -11,0 -20.09,8.19 -20.09,21 0,12.81 9.14,21 20.18,21 a 18.36,18.36 0 0 0 11,-3.55 2,2 0 0 1 3.27,1.55 v 0 a 2,2 0 0 0 2.04,2.03 z m -15.63,-35 a 13.61,13.61 0 0 1 13.62,13.79 c 0,8.63 -6.46,14.06 -13.62,14.06 -7.42,0 -13.28,-6 -13.28,-14.06 0,-8.06 5.86,-13.79 13.28,-13.79 z"
     id="path109" />
  <path
     d="m 472.97,86.6 a 10.8,10.8 0 0 1 -4.55,8.78 19.77,19.77 0 0 1 -22,0.45 17.42,17.42 0 0 1 -5.54,-6.12 2.2,2.2 0 0 1 1.11,-3 l 2.66,-1.13 a 2.23,2.23 0 0 1 2.81,1 11.71,11.71 0 0 0 3.39,3.76 10.32,10.32 0 0 0 6.13,2 10.79,10.79 0 0 0 6,-1.54 q 2.4,-1.55 2.4,-3.66 c 0,-2.55 -2,-4.41 -5.85,-5.61 l -6.83,-1.7 Q 441.08,76.91 441.08,68.61 a 10.35,10.35 0 0 1 4.43,-8.73 q 4.43,-3.3 11.34,-3.3 a 18.44,18.44 0 0 1 9.55,2.52 14.31,14.31 0 0 1 4.73,4.39 2.22,2.22 0 0 1 -1,3.28 l -2.71,1.13 a 2.1,2.1 0 0 1 -2.52,-0.68 8.66,8.66 0 0 0 -2.9,-2.55 11.59,11.59 0 0 0 -5.73,-1.42 9.64,9.64 0 0 0 -5.24,1.46 4.22,4.22 0 0 0 -2.32,3.58 c 0,2.27 2.14,3.9 6.42,4.87 l 6,1.55 q 11.83,2.88 11.84,11.89 z"
     id="path111" />
  <path
     d="m 201.18,98.87 a 20.65,20.65 0 0 1 -13.4,-4.8 19.87,19.87 0 0 1 -3.6,-3.84 21.13,21.13 0 0 1 -4.05,-12.57 20.88,20.88 0 0 1 5.33,-14.11 17.87,17.87 0 0 1 2.06,-2 20.87,20.87 0 0 1 13.66,-5 20.37,20.37 0 0 1 11.94,3.82 20.16,20.16 0 0 1 4.05,3.77 21.28,21.28 0 0 1 4.6,10.28 15.85,15.85 0 0 1 0.36,4 2.21,2.21 0 0 1 -2.2,2.14 h -32.14 a 13.39,13.39 0 0 0 2.33,6 11.74,11.74 0 0 0 4.76,4 14.72,14.72 0 0 0 6.3,1.35 15.81,15.81 0 0 0 6.89,-1.54 14.76,14.76 0 0 0 4.56,-3.33 2.14,2.14 0 0 1 2.11,-0.59 l 2.67,0.69 a 2.21,2.21 0 0 1 1.23,3.44 19.57,19.57 0 0 1 -6.16,5.28 22.63,22.63 0 0 1 -11.3,3.01 z m 13.09,-24.38 a 13.14,13.14 0 0 0 -6.93,-9.6 13.31,13.31 0 0 0 -6.23,-1.47 13.71,13.71 0 0 0 -6.35,1.47 12.48,12.48 0 0 0 -4.64,4 14,14 0 0 0 -2.33,5.58 z"
     id="path113" />
  <path
     d="m 499.18,99.04 a 20.73,20.73 0 0 1 -13.46,-4.81 19.72,19.72 0 0 1 -3.61,-3.86 21.21,21.21 0 0 1 -4.07,-12.62 21,21 0 0 1 5.35,-14.17 17.17,17.17 0 0 1 2.07,-2 20.92,20.92 0 0 1 13.72,-5 20.34,20.34 0 0 1 12,3.84 20.07,20.07 0 0 1 4.07,3.79 21.49,21.49 0 0 1 4.62,10.32 16.54,16.54 0 0 1 0.36,4 2.23,2.23 0 0 1 -2.21,2.15 h -32.28 a 13.44,13.44 0 0 0 2.33,6.07 11.94,11.94 0 0 0 4.77,4 14.94,14.94 0 0 0 6.34,1.36 15.84,15.84 0 0 0 6.91,-1.56 14.56,14.56 0 0 0 4.57,-3.34 2.17,2.17 0 0 1 2.12,-0.59 l 2.69,0.7 a 2.21,2.21 0 0 1 1.22,3.45 19.67,19.67 0 0 1 -6.17,5.3 22.73,22.73 0 0 1 -11.34,2.97 z M 512.3,74.56 a 13.17,13.17 0 0 0 -7,-9.63 13.25,13.25 0 0 0 -6.25,-1.48 13.65,13.65 0 0 0 -6.37,1.48 12.5,12.5 0 0 0 -4.66,4 13.83,13.83 0 0 0 -2.33,5.59 z"
     id="path115" />
  <path
     d="m 755.9,57.05 h 3.28 a 2.23,2.23 0 0 1 2.23,2.23 v 0 a 1.65,1.65 0 0 0 2.83,1.13 13.46,13.46 0 0 1 3.33,-2.27 15.24,15.24 0 0 1 8,-1.44 2.35,2.35 0 0 1 2.17,2.34 v 3.28 a 2.33,2.33 0 0 1 -2.57,2.33 13.42,13.42 0 0 0 -6.13,0.68 10.8,10.8 0 0 0 -3.35,1.94 q -4.2,3.65 -4.2,10.1 V 95.9 a 2.21,2.21 0 0 1 -2.21,2.21 h -3.32 A 2.21,2.21 0 0 1 753.75,95.9 V 59.28 a 2.23,2.23 0 0 1 2.15,-2.23 z"
     id="path117" />
  <path
     d="m 275.57,57.01 a 15.38,15.38 0 0 0 -11.11,4.26 4,4 0 0 1 -5.71,-0.08 14.45,14.45 0 0 0 -10.46,-4.18 15.89,15.89 0 0 0 -9.69,3.1 1.73,1.73 0 0 1 -2.83,-1.33 v -0.07 a 1.71,1.71 0 0 0 -1.71,-1.7 h -4.07 a 1.7,1.7 0 0 0 -1.71,1.7 v 37.64 a 1.71,1.71 0 0 0 1.71,1.71 h 4.07 a 1.72,1.72 0 0 0 1.71,-1.71 V 74.67 a 10.39,10.39 0 0 1 1.37,-5.38 10.88,10.88 0 0 1 9.6,-5 c 5.34,0 9,4.21 9,11 v 21.1 a 1.71,1.71 0 0 0 1.7,1.71 h 4.13 a 1.71,1.71 0 0 0 1.7,-1.71 V 77.58 c -0.69,-7.75 3.7,-13.43 10.85,-13.34 5.85,0 9.55,4.3 9.55,11 v 21.1 a 1.71,1.71 0 0 0 1.7,1.71 h 4.08 a 1.72,1.72 0 0 0 1.71,-1.71 V 74.82 c 0.01,-11.27 -5.5,-17.81 -15.59,-17.81 z"
     id="path119" />
  <path
     d="m 736.87,58.95 a 1.74,1.74 0 0 1 -2.85,1.34 18.25,18.25 0 0 0 -11.71,-3.83 c -11.16,0 -20.31,8.28 -20.31,21.19 0,12.91 9.24,21.27 20.4,21.27 a 18.34,18.34 0 0 0 11.62,-4 1.74,1.74 0 0 1 2.85,1.34 v 0 a 1.75,1.75 0 0 0 1.75,1.75 h 4.09 a 1.75,1.75 0 0 0 1.75,-1.75 v -37.5 a 1.75,1.75 0 0 0 -1.75,-1.75 h -4.09 a 1.75,1.75 0 0 0 -1.75,1.75 z m -13.86,32.82 c -7.41,0 -13.34,-6.1 -13.34,-14.21 0,-8.11 5.93,-13.95 13.34,-13.95 a 13.78,13.78 0 0 1 13.86,13.95 c 0,8.72 -6.54,14.21 -13.86,14.21 z"
     id="path121" />
  <path
     d="m 547.03,92.39 -0.64,-0.35 z"
     id="path123" />
  <path
     d="m 547.03,92.39 a 1.44,1.44 0 0 0 -1.92,-1.05 l -0.31,0.07 a 8.14,8.14 0 0 1 -1.85,0.22 5.36,5.36 0 0 1 -3.71,-1.51 q -1.63,-1.51 -1.64,-5.74 V 66.51 a 1.57,1.57 0 0 1 1.57,-1.57 h 4.4 a 1.57,1.57 0 0 0 1.57,-1.57 v -4.79 a 1.57,1.57 0 0 0 -1.57,-1.57 h -6 V 44.74 a 1.56,1.56 0 0 0 -1.56,-1.57 h -4.8 a 1.57,1.57 0 0 0 -1.57,1.57 v 12.27 h -5.2 a 1.57,1.57 0 0 0 -1.57,1.57 v 4.79 a 1.57,1.57 0 0 0 1.57,1.57 h 5.2 v 22 c 0.06,3.79 1.22,6.76 3.49,8.88 a 12,12 0 0 0 8.58,3.19 23.53,23.53 0 0 0 5.6,-0.62 1.59,1.59 0 0 0 1.1,-2.06 l -1.41,-4"
     id="path125" />
  <path
     d="m 412.15,57.05 a 2,2 0 0 0 -1.84,1.24 l -11.28,27.94 h -0.17 l -11,-26.51 a 4.34,4.34 0 0 0 -4,-2.67 H 363.8 V 45.14 a 2,2 0 0 0 -2,-2 h -4 a 2,2 0 0 0 -2,2 v 11.93 h -6.53 a 2,2 0 0 0 -2,2 v 4 a 2,2 0 0 0 2,2 h 4.55 a 2,2 0 0 1 2,2 v 19.79 q 0.09,5.68 3.49,8.88 a 12,12 0 0 0 8.58,3.19 23.45,23.45 0 0 0 5.15,-0.52 2,2 0 0 0 1.39,-2.59 l -1.15,-3.25 a 2,2 0 0 0 -2.33,-1.27 v 0 a 8.14,8.14 0 0 1 -1.85,0.22 5.36,5.36 0 0 1 -3.71,-1.51 q -1.64,-1.51 -1.64,-5.74 v -17.2 a 2,2 0 0 1 2,-2 h 13.07 a 4.35,4.35 0 0 1 4,2.59 l 11.91,27.07 a 2,2 0 0 1 0,1.63 l -6.44,13.78 a 2,2 0 0 0 1.8,2.82 h 3.69 a 2,2 0 0 0 1.82,-1.19 l 22.59,-52 A 2,2 0 0 0 416.37,57 Z"
     id="path127" />
</svg>
