<?xml version="1.0" encoding="UTF-8" standalone="no"?>
<svg
   xmlns:dc="http://purl.org/dc/elements/1.1/"
   xmlns:cc="http://creativecommons.org/ns#"
   xmlns:rdf="http://www.w3.org/1999/02/22-rdf-syntax-ns#"
   xmlns:svg="http://www.w3.org/2000/svg"
   xmlns="http://www.w3.org/2000/svg"
   xmlns:sodipodi="http://sodipodi.sourceforge.net/DTD/sodipodi-0.dtd"
   xmlns:inkscape="http://www.inkscape.org/namespaces/inkscape"
   id="Layer_1"
   data-name="Layer 1"
   viewBox="0 0 793.72 155.14"
   version="1.1"
   sodipodi:docname="logo_white.svg"
   width="793.72003"
   height="155.14"
   inkscape:version="1.0.1 (c497b03c, 2020-09-10)">
  <metadata
     id="metadata157">
    <rdf:RDF>
      <cc:Work
         rdf:about="">
        <dc:format>image/svg+xml</dc:format>
        <dc:type
           rdf:resource="http://purl.org/dc/dcmitype/StillImage" />
        <dc:title></dc:title>
      </cc:Work>
    </rdf:RDF>
  </metadata>
  <sodipodi:namedview
     pagecolor="#ffffff"
     bordercolor="#666666"
     borderopacity="1"
     objecttolerance="10"
     gridtolerance="10"
     guidetolerance="10"
     inkscape:pageopacity="0"
     inkscape:pageshadow="2"
     inkscape:window-width="697"
     inkscape:window-height="480"
     id="namedview155"
     showgrid="false"
     fit-margin-top="16"
     fit-margin-left="16"
     fit-margin-bottom="16"
     fit-margin-right="16"
     inkscape:zoom="0.88362518"
     inkscape:cx="388.21502"
     inkscape:cy="73.325007"
     inkscape:window-x="1288"
     inkscape:window-y="523"
     inkscape:window-maximized="0"
     inkscape:current-layer="Layer_1" />
  <defs
     id="defs122">
    <style
       id="style120">.cls-1{fill:#fff;}</style>
  </defs>
  <path
     class="cls-1"
     d="M 77.58,139.14 A 61.57,61.57 0 1 1 139.14,77.569999 61.64,61.64 0 0 1 77.58,139.14 Z m 0,-113.550001 a 52,52 0 1 0 52,52 52,52 0 0 0 -52,-52 z"
     id="path124" />
  <path
     class="cls-1"
     d="m 620.24,77.819999 a 20.5,20.5 0 0 1 6.09,-15.21 21.34,21.34 0 0 1 15.52,-6 21.07,21.07 0 0 1 15.44,6 21.81,21.81 0 0 1 0,30.42 21.06,21.06 0 0 1 -15.44,6 21.33,21.33 0 0 1 -15.52,-6 20.5,20.5 0 0 1 -6.09,-15.21 z m 7.89,0 a 14.16,14.16 0 0 0 3.94,10.41 14,14 0 0 0 19.56,0 15.59,15.59 0 0 0 0,-20.74 13.81,13.81 0 0 0 -19.56,0 14.06,14.06 0 0 0 -3.94,10.33 z"
     id="path126" />
  <path
     class="cls-1"
     d="m 306.42,57.049999 h -4.48 a 1.51,1.51 0 0 0 -1.51,1.51 V 111.51 a 1.51,1.51 0 0 0 1.51,1.51 h 4.48 a 1.52,1.52 0 0 0 1.51,-1.51 V 96.079999 a 1.5,1.5 0 0 1 2.53,-1.08 17.86,17.86 0 0 0 11.87,4 c 11,0 20.09,-8.19 20.09,-21 0,-12.81 -9.14,-21 -20.18,-21 a 18.48,18.48 0 0 0 -10.76,3.38 2.24,2.24 0 0 1 -3.55,-1.83 v 0 a 1.52,1.52 0 0 0 -1.51,-1.5 z m 15.13,34.92 a 13.61,13.61 0 0 1 -13.61,-13.79 c 0,-8.63 6.47,-14.06 13.62,-14.06 7.42,0 13.28,6 13.28,14.06 0,8.06 -5.9,13.79 -13.29,13.79 z"
     id="path128" />
  <rect
     class="cls-1"
     x="670.58002"
     y="43.179989"
     width="7.7800002"
     height="54.919998"
     rx="1.84"
     id="rect130" />
  <rect
     class="cls-1"
     x="687.72003"
     y="43.179989"
     width="7.7800002"
     height="54.919998"
     rx="1.84"
     id="rect132" />
  <path
     class="cls-1"
     d="m 608.48,99.129999 h 3.46 a 2,2 0 0 0 2,-2 v -52 a 2,2 0 0 0 -2,-2 h -3.49 a 2,2 0 0 0 -2,2 v 9.7 a 4.34,4.34 0 0 1 -6.09,4 19.89,19.89 0 0 0 -8.32,-1.73 c -11,0 -20.09,8.19 -20.09,20.95 0,12.76 9.14,21 20.18,21 a 18.34,18.34 0 0 0 11,-3.55 2,2 0 0 1 3.28,1.55 v 0 a 2,2 0 0 0 2.07,2.08 z m -15.63,-34.92 a 13.61,13.61 0 0 1 13.63,13.79 c 0,8.63 -6.47,14.06 -13.63,14.06 -7.41,0 -13.28,-6 -13.28,-14.06 0,-8.06 5.87,-13.79 13.28,-13.79 z"
     id="path134" />
  <path
     class="cls-1"
     d="m 472.94,86.639999 a 10.78,10.78 0 0 1 -4.55,8.78 18,18 0 0 1 -11.45,3.58 18.21,18.21 0 0 1 -10.56,-3.13 17.3,17.3 0 0 1 -5.53,-6.12 2.19,2.19 0 0 1 1.11,-3 l 2.66,-1.13 a 2.22,2.22 0 0 1 2.8,1 11.71,11.71 0 0 0 3.39,3.76 10.34,10.34 0 0 0 6.13,2 10.83,10.83 0 0 0 6,-1.54 4.39,4.39 0 0 0 2.39,-3.66 c 0,-2.55 -2,-4.41 -5.85,-5.61 l -6.82,-1.7 q -11.62,-2.93 -11.63,-11.22 a 10.35,10.35 0 0 1 4.43,-8.73 q 4.44,-3.3 11.34,-3.3 a 18.42,18.42 0 0 1 9.55,2.52 14.22,14.22 0 0 1 4.73,4.39 2.21,2.21 0 0 1 -1,3.28 l -2.7,1.13 a 2.09,2.09 0 0 1 -2.52,-0.68 8.7,8.7 0 0 0 -2.91,-2.55 11.54,11.54 0 0 0 -5.73,-1.42 9.64,9.64 0 0 0 -5.24,1.46 4.24,4.24 0 0 0 -2.32,3.58 c 0,2.27 2.14,3.9 6.42,4.87 l 6,1.55 q 11.86,2.88 11.86,11.89 z"
     id="path136" />
  <path
     class="cls-1"
     d="m 201.17,98.909999 a 20.61,20.61 0 0 1 -13.4,-4.8 19.62,19.62 0 0 1 -3.61,-3.84 21.43,21.43 0 0 1 1.28,-26.68 17.87,17.87 0 0 1 2.06,-2 20.9,20.9 0 0 1 13.67,-5 20.34,20.34 0 0 1 11.93,3.79 19.9,19.9 0 0 1 4,3.78 21.3,21.3 0 0 1 4.61,10.28 15.83,15.83 0 0 1 0.35,4 2.21,2.21 0 0 1 -2.2,2.14 h -32.08 a 13.38,13.38 0 0 0 2.32,6 11.81,11.81 0 0 0 4.76,4 14.77,14.77 0 0 0 6.31,1.35 15.88,15.88 0 0 0 6.89,-1.54 14.71,14.71 0 0 0 4.55,-3.33 2.16,2.16 0 0 1 2.12,-0.59 l 2.67,0.69 a 2.2,2.2 0 0 1 1.22,3.44 19.64,19.64 0 0 1 -6.15,5.28 22.65,22.65 0 0 1 -11.3,3.03 z m 13.08,-24.38 a 13.14,13.14 0 0 0 -6.93,-9.6 13.28,13.28 0 0 0 -6.23,-1.47 13.71,13.71 0 0 0 -6.35,1.47 12.56,12.56 0 0 0 -4.64,4 14,14 0 0 0 -2.32,5.58 z"
     id="path138" />
  <path
     class="cls-1"
     d="m 499.16,99.079999 a 20.7,20.7 0 0 1 -13.45,-4.81 20.08,20.08 0 0 1 -3.62,-3.86 21.55,21.55 0 0 1 1.28,-26.79 17.17,17.17 0 0 1 2.07,-2 21,21 0 0 1 13.72,-5 20.81,20.81 0 0 1 16,7.63 21.3,21.3 0 0 1 4.62,10.33 15.48,15.48 0 0 1 0.36,4 2.22,2.22 0 0 1 -2.21,2.15 h -32.21 a 13.56,13.56 0 0 0 2.33,6.07 12,12 0 0 0 4.78,4 14.71,14.71 0 0 0 6.33,1.36 15.81,15.81 0 0 0 6.91,-1.56 14.71,14.71 0 0 0 4.58,-3.34 2.15,2.15 0 0 1 2.12,-0.59 l 2.68,0.7 a 2.21,2.21 0 0 1 1.23,3.45 19.71,19.71 0 0 1 -6.18,5.3 22.68,22.68 0 0 1 -11.34,2.96 z m 13.13,-24.48 a 13.15,13.15 0 0 0 -7,-9.63 13.25,13.25 0 0 0 -6.25,-1.48 13.68,13.68 0 0 0 -6.37,1.48 12.5,12.5 0 0 0 -4.66,4 14,14 0 0 0 -2.33,5.59 z"
     id="path140" />
  <path
     class="cls-1"
     d="m 755.94,57.089999 h 3.27 a 2.23,2.23 0 0 1 2.23,2.23 v 0 a 1.65,1.65 0 0 0 2.83,1.13 13.66,13.66 0 0 1 3.28,-2.32 15.24,15.24 0 0 1 8,-1.44 2.35,2.35 0 0 1 2.17,2.34 v 3.28 a 2.33,2.33 0 0 1 -2.57,2.33 13.44,13.44 0 0 0 -6.13,0.68 10.91,10.91 0 0 0 -3.35,1.94 q -4.2,3.64 -4.2,10.1 v 18.53 a 2.21,2.21 0 0 1 -2.21,2.21 h -3.32 a 2.21,2.21 0 0 1 -2.21,-2.21 v -36.57 a 2.23,2.23 0 0 1 2.21,-2.23 z"
     id="path142" />
  <path
     class="cls-1"
     d="m 275.57,57.049999 a 15.38,15.38 0 0 0 -11.11,4.26 4,4 0 0 1 -5.71,-0.08 14.43,14.43 0 0 0 -10.46,-4.18 15.89,15.89 0 0 0 -9.69,3.1 1.73,1.73 0 0 1 -2.83,-1.33 v -0.07 a 1.7,1.7 0 0 0 -1.71,-1.7 h -4.07 a 1.71,1.71 0 0 0 -1.71,1.7 v 37.63 a 1.72,1.72 0 0 0 1.71,1.71 h 4.07 a 1.71,1.71 0 0 0 1.71,-1.71 v -21.67 a 10.39,10.39 0 0 1 1.37,-5.33 10.88,10.88 0 0 1 9.6,-5.05 c 5.34,0 9,4.21 9,11 v 21.05 a 1.71,1.71 0 0 0 1.7,1.71 h 4.08 a 1.72,1.72 0 0 0 1.71,-1.71 v -18.76 c -0.69,-7.75 3.7,-13.43 10.84,-13.34 5.85,0 9.55,4.3 9.55,11 v 21.1 a 1.72,1.72 0 0 0 1.71,1.71 h 4.07 a 1.71,1.71 0 0 0 1.71,-1.71 v -21.52 c 0.04,-11.27 -5.47,-17.81 -15.54,-17.81 z"
     id="path144" />
  <path
     class="cls-1"
     d="m 736.85,58.989999 a 1.74,1.74 0 0 1 -2.85,1.34 18.23,18.23 0 0 0 -11.71,-3.83 c -11.15,0 -20.31,8.28 -20.31,21.19 0,12.91 9.24,21.27 20.4,21.27 a 18.39,18.39 0 0 0 11.63,-4 1.73,1.73 0 0 1 2.84,1.34 v 0 a 1.75,1.75 0 0 0 1.75,1.75 h 4.09 a 1.75,1.75 0 0 0 1.75,-1.67 v -37.58 a 1.75,1.75 0 0 0 -1.75,-1.75 h -4.09 a 1.75,1.75 0 0 0 -1.75,1.75 z m -13.86,32.82 c -7.41,0 -13.33,-6.1 -13.33,-14.21 0,-8.11 5.92,-14 13.33,-14 a 13.77,13.77 0 0 1 13.86,14 c 0,8.72 -6.53,14.21 -13.86,14.21 z"
     id="path146" />
  <path
     class="cls-1"
     d="m 547.01,92.429999 -0.64,-0.35 z"
     id="path148" />
  <path
     class="cls-1"
     d="m 547.01,92.429999 a 1.44,1.44 0 0 0 -1.92,-1.05 l -0.3,0.07 a 8.3,8.3 0 0 1 -1.86,0.22 5.33,5.33 0 0 1 -3.7,-1.51 c -1.1,-1 -1.64,-2.92 -1.64,-5.74 v -17.87 a 1.57,1.57 0 0 1 1.57,-1.57 h 4.39 a 1.57,1.57 0 0 0 1.57,-1.57 v -4.79 a 1.57,1.57 0 0 0 -1.57,-1.57 h -6 v -12.27 a 1.57,1.57 0 0 0 -1.57,-1.57 h -4.8 a 1.56,1.56 0 0 0 -1.56,1.57 v 12.27 h -5.21 a 1.56,1.56 0 0 0 -1.56,1.57 v 4.76 a 1.56,1.56 0 0 0 1.56,1.57 h 5.21 v 22 c 0,3.79 1.22,6.76 3.49,8.88 a 12,12 0 0 0 8.58,3.19 23.59,23.59 0 0 0 5.6,-0.62 1.58,1.58 0 0 0 1.09,-2.06 l -1.41,-4"
     id="path150" />
  <path
     class="cls-1"
     d="m 412.13,57.089999 a 2,2 0 0 0 -1.84,1.24 l -11.27,27.94 h -0.17 l -11,-26.51 a 4.33,4.33 0 0 0 -4,-2.67 h -20.07 v -11.93 a 2,2 0 0 0 -2,-2 h -4 a 2,2 0 0 0 -2,2 v 11.93 h -6.53 a 2,2 0 0 0 -2,2 v 4 a 2,2 0 0 0 2,2 h 4.55 a 2,2 0 0 1 2,2 v 19.79 q 0.09,5.68 3.49,8.88 a 12,12 0 0 0 8.58,3.19 23.61,23.61 0 0 0 5.16,-0.52 2,2 0 0 0 1.38,-2.59 l -1.15,-3.25 a 2,2 0 0 0 -2.33,-1.27 v 0 a 8.14,8.14 0 0 1 -1.85,0.22 5.36,5.36 0 0 1 -3.71,-1.51 q -1.63,-1.51 -1.64,-5.74 v -17.2 a 2,2 0 0 1 2,-2 h 13.07 a 4.34,4.34 0 0 1 4,2.59 l 11.91,27.07 a 2,2 0 0 1 0,1.63 L 388.3,110.26 a 2,2 0 0 0 1.8,2.82 h 3.69 a 2,2 0 0 0 1.82,-1.19 L 418.2,59.889999 a 2,2 0 0 0 -1.82,-2.77 z"
     id="path152" />
</svg>
